<?xml version="1.0" encoding="utf-8"?>
<!-- Generator: Adobe Illustrator 22.0.1, SVG Export Plug-In . SVG Version: 6.00 Build 0)  -->
<svg version="1.1" id="Layer_1" xmlns="http://www.w3.org/2000/svg" xmlns:xlink="http://www.w3.org/1999/xlink" x="0px" y="0px"
	 viewBox="0 0 2197 1200" style="enable-background:new 0 0 2197 1200;" xml:space="preserve">
<style type="text/css">
	.st0{fill:#FFFFFF;}
	.st1{enable-background:new    ;}
	.st2{fill:#8E8575;}
	.st3{fill:#FFFFFF;stroke:#231F20;stroke-miterlimit:10;}
	.st4{fill:#231F20;stroke:#FFFFFF;stroke-miterlimit:10;}
	.st5{display:none;}
	.st6{display:inline;}
	.st7{display:inline;fill:#FFFFFF;}
</style>
<title>Schnitzler Projektlogo logovarianten_zeitung_whitebg_beta</title>
<g id="Hintergrund_Zeitung_grau">
	<rect y="0" class="st0" width="2197" height="1200"/>
</g>
<g id="Arthur_Schnitzler">
	<g class="st1">
		<path d="M196,511.5l68-146.3c0.7-1.3,2.2-2.4,3.7-2.4h2.2c1.5,0,3,1.1,3.7,2.4l68,146.3c1.3,2.8-0.4,5.7-3.7,5.7h-24.1
			c-3.9,0-5.7-1.3-7.6-5.4l-7.8-17.2h-59.1l-7.8,17.4c-1.1,2.6-3.5,5.2-7.8,5.2h-23.9C196.5,517.2,194.7,514.4,196,511.5z
			 M285.3,465l-16.5-35.9h-0.2L252.3,465H285.3z"/>
		<path d="M357.5,369.2c0-2.2,1.7-4.1,4.1-4.1h65c26.1,0,47.4,21.1,47.4,46.9c0,20-13.3,36.1-32.2,43.7l29.8,55.2
			c1.5,2.8,0,6.3-3.7,6.3H439c-1.7,0-3-1.1-3.5-2l-28.9-57.6h-15v55.4c0,2.2-2,4.1-4.1,4.1h-25.9c-2.4,0-4.1-2-4.1-4.1V369.2z
			 M423.8,430c8.9,0,16.5-8.3,16.5-17.4c0-9.1-7.6-16.5-16.5-16.5h-32.2V430H423.8z"/>
		<path d="M520.7,397h-31.1c-2.4,0-4.1-2-4.1-4.1v-23.7c0-2.2,1.7-4.1,4.1-4.1h96.5c2.4,0,4.1,2,4.1,4.1v23.7c0,2.2-1.7,4.1-4.1,4.1
			H555v116c0,2.2-2,4.1-4.1,4.1h-26.1c-2.2,0-4.1-2-4.1-4.1V397z"/>
		<path d="M610,369.2c0-2.2,2-4.1,4.1-4.1H640c2.4,0,4.1,2,4.1,4.1V424h62.2v-54.8c0-2.2,1.7-4.1,4.1-4.1h25.9c2.2,0,4.1,2,4.1,4.1
			v143.9c0,2.2-2,4.1-4.1,4.1h-25.9c-2.4,0-4.1-2-4.1-4.1v-57.2h-62.2v57.2c0,2.2-1.7,4.1-4.1,4.1h-25.9c-2.2,0-4.1-2-4.1-4.1V369.2
			z"/>
		<path d="M773.6,369.2c0-2.2,2-4.1,4.1-4.1h26.7c2.4,0,4.1,2,4.1,4.1v88c0,15.2,11.3,27.4,26.7,27.4c15.6,0,27.2-12.2,27.2-27.4
			v-88c0-2.2,1.7-4.1,4.1-4.1h26.7c2.2,0,4.1,2,4.1,4.1v89.8c0,33-27.8,60.4-62.2,60.4c-34.1,0-61.7-27.4-61.7-60.4V369.2z"/>
		<path d="M930.6,369.2c0-2.2,1.7-4.1,4.1-4.1h65c26.1,0,47.4,21.1,47.4,46.9c0,20-13.3,36.1-32.2,43.7l29.8,55.2
			c1.5,2.8,0,6.3-3.7,6.3H1012c-1.7,0-3-1.1-3.5-2l-28.9-57.6h-15v55.4c0,2.2-2,4.1-4.1,4.1h-25.9c-2.4,0-4.1-2-4.1-4.1V369.2z
			 M996.8,430c8.9,0,16.5-8.3,16.5-17.4c0-9.1-7.6-16.5-16.5-16.5h-32.2V430H996.8z"/>
	</g>
	<g class="st1">
		<path d="M206.9,690.3l10.2-18c1.7-2.8,5.9-2.4,7.4-1.3c0.9,0.4,16.5,12,30.9,12c8.7,0,15-5.4,15-13c0-9.1-7.6-16.1-22.4-21.9
			c-18.7-7.4-42.2-21.9-42.2-48c0-21.5,16.7-43.2,50.2-43.2c22.6,0,40,11.5,46.5,16.3c2.6,1.5,2.2,5.4,1.3,7l-11.1,16.7
			c-1.5,2.4-5.4,4.3-7.4,2.8c-2-1.1-17.8-13-31.1-13c-7.8,0-13.7,5.2-13.7,11.1c0,8,6.5,14.1,23.7,21.1c17,6.7,43.9,20,43.9,49.5
			c0,22.4-19.3,45-51.3,45c-28.3,0-43.9-11.7-48.9-16.7C205.8,694.2,205.1,693.4,206.9,690.3z"/>
		<path d="M400.1,556.7c21.7,0,37.8,6.7,52.6,20.2c2,1.7,2,4.3,0.2,6.1l-17,17.6c-1.5,1.5-3.9,1.5-5.4,0c-8-7.2-18.7-11.1-29.3-11.1
			c-24.6,0-42.6,20.4-42.6,44.8c0,24.1,18.3,44.1,42.8,44.1c10.2,0,21.3-3.7,29.1-10.4c1.5-1.3,4.3-1.3,5.6,0.2l17,18
			c1.5,1.5,1.3,4.3-0.2,5.9c-14.8,14.3-33.5,21.1-52.8,21.1c-43.5,0-78.5-34.6-78.5-78C321.6,591.7,356.6,556.7,400.1,556.7z"/>
		<path d="M477,563c0-2.2,2-4.1,4.1-4.1H507c2.4,0,4.1,2,4.1,4.1v54.8h62.2V563c0-2.2,1.7-4.1,4.1-4.1h25.9c2.2,0,4.1,2,4.1,4.1
			v143.9c0,2.2-2,4.1-4.1,4.1h-25.9c-2.4,0-4.1-2-4.1-4.1v-57.2h-62.2v57.2c0,2.2-1.7,4.1-4.1,4.1h-25.9c-2.2,0-4.1-2-4.1-4.1V563z"
			/>
		<path d="M642.6,560.6c0-2.2,2-3.9,4.1-3.9h5.4l86.7,83.4h0.2V563c0-2.2,1.7-4.1,4.1-4.1h26.1c2.2,0,4.1,2,4.1,4.1v146.3
			c0,2.2-2,3.9-4.1,3.9h-3.5c-0.7,0-2.4-0.7-2.8-1.1l-85.8-86.3h-0.2v81.1c0,2.2-1.7,4.1-4.1,4.1H647c-2.2,0-4.1-2-4.1-4.1
			L642.6,560.6z"/>
		<path d="M808.9,563c0-2.2,2-4.1,4.1-4.1h26.1c2.2,0,4.1,2,4.1,4.1v143.9c0,2.2-2,4.1-4.1,4.1H813c-2.2,0-4.1-2-4.1-4.1V563z"/>
		<path d="M898.2,590.8h-31.1c-2.4,0-4.1-2-4.1-4.1V563c0-2.2,1.7-4.1,4.1-4.1h96.5c2.4,0,4.1,2,4.1,4.1v23.7c0,2.2-1.7,4.1-4.1,4.1
			h-31.1v116c0,2.2-2,4.1-4.1,4.1h-26.1c-2.2,0-4.1-2-4.1-4.1V590.8z"/>
		<path d="M973.8,702.9l57.8-111.7v-0.4h-47.4c-2.2,0-4.1-2-4.1-4.1V563c0-2.2,2-4.1,4.1-4.1h92.4c2.2,0,4.1,2,4.1,4.1v2.8
			l-55.9,112.8v0.4h47.4c2.4,0,4.1,2,4.1,4.1v23.7c0,2.2-1.7,4.1-4.1,4.1h-94.3c-2.2,0-4.1-2-4.1-4.1V702.9z"/>
		<path d="M1103.3,563c0-2.2,1.7-4.1,4.1-4.1h25.9c2.2,0,4.1,2,4.1,4.1v116h51.7c2.4,0,4.1,2,4.1,4.1v23.7c0,2.2-1.7,4.1-4.1,4.1
			h-81.7c-2.4,0-4.1-2-4.1-4.1V563z"/>
		<path d="M1212.4,563c0-2.2,1.7-4.1,4.1-4.1h90c2.4,0,4.1,2,4.1,4.1v23.7c0,2.2-1.7,4.1-4.1,4.1h-60.2v26.9h49.5
			c2.2,0,4.1,2,4.1,4.1v23.7c0,2.4-2,4.1-4.1,4.1h-49.5V679h60.2c2.4,0,4.1,2,4.1,4.1v23.7c0,2.2-1.7,4.1-4.1,4.1h-90
			c-2.4,0-4.1-2-4.1-4.1V563z"/>
		<path d="M1337.8,563c0-2.2,1.7-4.1,4.1-4.1h65c26.1,0,47.4,21.1,47.4,46.9c0,20-13.3,36.1-32.2,43.7l29.8,55.2
			c1.5,2.8,0,6.3-3.7,6.3h-28.9c-1.7,0-3-1.1-3.5-2l-28.9-57.6h-15v55.4c0,2.2-2,4.1-4.1,4.1h-25.9c-2.4,0-4.1-2-4.1-4.1V563z
			 M1404.1,623.8c8.9,0,16.5-8.3,16.5-17.4c0-9.1-7.6-16.5-16.5-16.5h-32.2v33.9H1404.1z"/>
	</g>
</g>
<path class="st2" d="M233.3,973.7l-1.2-10.7c25.9-41.4,58.2-99.6,96.9-174.6l-33.7,3.4c-18,2-31.8,4-41.5,6
	c-4.2,0.8-6.8,1.9-7.8,3.2s-1.5,6.3-1.7,15l-0.3,9.7l-11,1.2c-0.7-6.3-1.4-14-1.9-22.9l-0.7-8.7c-0.5-4.3-1.4-8.5-2.4-12.7l1.6-1.4
	c19.3-1.2,36.5-2.6,51.6-4.3c57.1-6.4,90.3-10.3,99.4-11.5l1.1,9.7c-34.7,59.2-67,117.7-96.8,175.6c18.6-1.4,35.8-3.1,51.7-4.9
	c16.7-1.9,29.6-4,38.7-6.5c2.8-0.8,4.5-1.7,5.3-2.9c1-1.6,2.2-8.7,3.7-21.3l0.7-7.1l11.6-1.3c-0.7,16.2-0.4,32.3,0.8,48.5
	c-5.4,1.1-10.7,1.9-16.1,2.5l-102.6,9.9C271.3,968.5,256.2,970.5,233.3,973.7z"/>
<path class="st2" d="M530.6,913.6l4.4,3.5l-4.6,13.7c-6.1,4.8-12.8,8.6-20,11.5c-7.5,2.9-15.5,4.9-23.5,5.7
	c-19.7,2.2-35.9-1.8-48.6-11.9c-12.7-10.2-20.2-25.7-22.5-46.4c-1.5-13.1-1.1-24.2,1.4-33.2c1.9-7.3,5.9-13.8,11.4-18.9
	c6.2-5.7,12.9-11,20-15.6c7.8-5.1,16.7-8.3,26-9.3c14.8-1.7,27.6,1.1,38.2,8.3s17,20,19,38.4c0.3,2.3,0.5,5.7,0.7,10.4l-21.8,6.6
	c-6.8,1.2-16.7,2.6-29.8,4l-29.4,3.3c3.1,15.5,9.1,26.7,18,33.7s19.5,9.8,31.8,8.4c5.2-0.6,10.3-1.9,15.1-4
	C521.3,919.8,526.1,917,530.6,913.6z M449,869.5c8.2-0.2,16.4-0.7,24.6-1.7c7.2-0.8,14.6-2,22.4-3.6l-0.6-6.4
	c-1.3-11.2-4.2-19.1-8.9-23.8c-4.7-4.7-10.5-6.6-17.4-5.8c-4.5,0.4-8.8,2.1-12.3,5c-3.3,2.9-5.7,6.8-6.7,11
	C448.9,848.8,448.5,857.2,449,869.5L449,869.5z"/>
<path class="st2" d="M634.7,817.8l16.7-13.9c-2-16-4-30-6.1-41.9c11.6-5,22.8-11,33.5-17.8l4.4,2.7c-0.5,13.4,0.1,31.2,1.9,53.3
	c4.2,0.3,8.3,0.2,12.5-0.3c8.3-0.9,16.6-2.4,24.6-4.6l1.3,0.7l-0.7,5.1c-0.7,4.7-1.2,9.5-1.4,14.3c-10.7,0.5-18.5,1-23.5,1.5
	c-3.6,0.4-7.2,0.9-10.8,1.7c0.8,9.2,1.7,17.3,2.5,24.3c3.4,30.5,6.3,47.7,8.6,51.7s6.8,5.6,13.6,4.8c2.2-0.3,4.3-0.7,6.4-1.4
	c2.4-0.8,4.8-1.7,7.2-2.7l2.9,4.9c-4.7,6.7-9.3,13.6-13.7,20.7c-3.3,0.9-6.3,1.7-9.1,2.3s-5.3,1-7.7,1.3c-7.6,0.9-14.1,0.3-19.5-1.8
	c-5.4-2-9.5-5-12.3-8.9s-4.6-10-5.6-18.2c-0.5-4.4-1.6-15.8-3.2-34.4c-1.4-16.3-2.6-29.1-3.7-38.6l-7,0.5c-3.7,0.5-7.4,1.2-11,2.1
	L634.7,817.8z"/>
<path class="st2" d="M729.5,806.2l-1.2-10.5c13.6-2.8,26.9-6.9,39.7-12.3l12.9-6.3c1.6-0.2,2.6,0.8,2.8,2.8l0.4,8.1
	c0.8,21,2.3,41.2,4.5,60.6c1.4,12.5,3,20.8,4.7,24.8c1.5,3.8,4.3,6.9,7.9,8.8c3.6,1.9,8.1,2.5,13.6,1.9c6.1-0.6,11.8-3.1,16.3-7.2
	c4.4-4.1,7-8.3,7.6-12.7c0.7-4.4-0.1-16.6-2.4-36.7c-1.8-16.1-3.1-25.4-4-28.1c-0.3-1.2-1.2-2.2-2.2-2.8c-1.4-0.6-7.7-0.5-18.7,0.2
	l-1.2-10.5c18.3-4.2,31.6-8.1,40-11.9l13.8-6.8c1.5-0.2,2.4,0.7,2.6,2.6l0.2,3.7c0.3,16,2.8,44.7,7.5,86.1
	c1.4,12.7,2.7,20.6,3.8,23.8c0.4,1.3,1.3,2.4,2.5,3c1.5,0.7,7.3,0.8,17.3,0.4l1.2,11.1c-10.4,0.6-20.7,1.5-30.9,2.7
	c-8.3,0.9-16,2.1-23,3.5l-1.5-2.3c-0.1-4.6-0.6-11.7-1.4-21.4c-7.8,7.9-15.1,16.3-21.9,25.2c-5.7,3.4-12,5.5-18.5,6.4
	c-8.3,0.9-15.8,0.1-22.3-2.6c-6-2.3-11.3-6.3-15-11.6c-3.5-5.1-5.9-12.5-7-22.3l-1.5-14.8c-0.8-9.2-1.5-16.6-2.1-22.3
	c-1.8-16.1-3.2-25.8-4.2-28.9c-0.5-1.8-1.7-3.3-3.3-4.1C744.9,805.2,739.3,805.3,729.5,806.2z"/>
<path class="st2" d="M914.2,897l-1.3-11.1c9.8-1.7,15.3-3.1,16.4-4.3c1.1-1.2,1.7-3.6,1.5-7.3c-0.5-9.2-2-25.4-4.6-48.5
	c-1.3-11.4-2.6-21.2-3.9-29.5c-0.8-5.1-1.4-8-2.1-8.9c-0.6-0.7-1.4-1.2-2.3-1.4c-1-0.3-6.4,0-16.2,0.9l-1.2-10.5
	c4.9-0.6,12.4-2.5,22.6-5.8c8.7-2.7,17.2-6.1,25.4-10.2l3.5-1.7c1.3-0.1,2.1,0.9,2.3,2.9v1.2c0,2.6,0.6,9.1,1.8,19.6l19-20
	c2.1-2.4,4.7-4.3,7.7-5.5c4.6-1.7,9.4-2.8,14.3-3.3c9.6-1.1,17.6-0.3,24.1,2.3c6.2,2.4,11.4,6.7,15,12.2c3.5,5.5,6,14.5,7.4,26.8
	c0.6,5.5,1.2,11.8,1.7,18.9c1.2,14.8,2.4,27.5,3.6,38.2c0.7,6.1,1.7,10.2,2.9,12.5c0.7,1.4,1.9,2.4,3.4,2.9
	c1.4,0.4,6.4,0.5,15.1,0.4l1.2,11.1l-16.8,1.3l-10.8,0.9l-27.9,4.1l-1.7-1.6c0.4-17.8-0.4-35.7-2.4-53.4c-2.6-23-5.6-37.1-9-42.1
	c-4.4-6.5-11.4-9.2-21-8.1c-5.7,0.5-11.1,2.8-15.5,6.5c-4.2,3.6-6.7,7.3-7.7,11c-0.5,1.5-0.3,6.1,0.6,13.9c3.7,32.9,6,51.7,6.8,56.4
	s1.9,7.6,3.3,8.5c1.8,1.2,8,1.5,18.5,0.8l1.3,11.1c-15.8,1.2-29.2,2.5-40,3.7C942.9,892.9,931.2,894.5,914.2,897z"/>
<path class="st2" d="M1212.7,756l-22.6,2.5c1.7,3.9,2.8,8,3.3,12.2c1.9,16.7-2.7,29.8-13.6,39.3c-11,9.5-24.4,15.2-40.3,16.9
	c-2.5,0.3-6.3,0.5-11.2,0.7c-3.9,2.9-6.3,5.2-7.3,6.7c-0.9,1.5-1.4,3.3-1.1,5.1c0.5,4.4,3.8,6.6,10,6.9c3.4,0.2,21.8-1.6,55.2-5.4
	c11.2-1.3,19.1-1.2,23.6,0.3s8.5,4.5,11.8,9.2c3.4,4.7,5.5,10.9,6.4,18.8c2.1,18.2-3.4,34.3-16.4,48.2s-31.8,22.3-56.3,25
	c-20.8,2.3-36.8,0.4-47.8-5.7s-17.2-14.9-18.5-26.2c-0.7-6.5,0.2-12.1,2.9-16.8c1.2-2.2,5.8-6.2,13.8-12l9.2-6.7
	c-7.5-0.6-12.6-2-15.3-4.1s-4.3-5.4-4.8-9.8c-0.5-4.8,0.6-10.9,3.3-18.2l4.2-3.4c4.7-3.9,9.2-8.1,13.5-12.5
	c-10.8-2.6-18.8-6.7-24.1-12.6c-5.3-5.8-8.5-13.5-9.6-23.1c-1.5-13.9,2.5-25.8,12.1-36c9.6-10.1,24.1-16.3,43.3-18.4
	c8.4-1.1,17-1.1,25.4,0c5.9,1,11.6,3,16.9,5.9c19.9-2.1,32.9-3.9,38.9-5.2l2.6,2.5C1217.3,745.4,1214.9,750.6,1212.7,756z
	 M1128.9,875.1c-7,6.5-11.4,11.7-13.3,15.7c-1.9,4.1-2.6,8.7-2,13.2c0.7,8.3,5.4,15.8,12.6,20c7.4,4.6,17.7,6.2,30.9,4.7
	c9.5-1.1,17.4-3.5,23.8-7.2s10.9-8.4,13.7-14.1c2.8-5.6,3.8-11.9,3-18.1c-0.7-5.9-2.6-10.7-5.8-14.5c-2.3-2.6-5.4-4.2-8.8-4.5
	c-3.6-0.4-13.7,0.3-30.4,2.2L1128.9,875.1z M1114.9,778.8c1.5,13.6,4.6,23,9.2,28.1s10.7,7.2,18.1,6.4c6.8-0.8,11.9-3.8,15.1-9.1
	s4.3-13.1,3.1-23.4c-1.3-11.3-4.2-19.4-8.7-24.1c-4.5-4.7-10.3-6.7-17.4-5.9c-6.8,0.8-12,3.6-15.6,8.6S1114,770.7,1114.9,778.8z"/>
<path class="st2" d="M559.8,936.9l-1.3-11.1c10.2-1.5,16-2.8,17.5-3.9c1.5-1.1,2.2-3.7,2.2-8c0.1-5.8-1-18.4-3.2-37.9
	c-0.9-8.4-2-16.2-3-23.4l-2.2-15.9c-0.6-5.3-1.5-8.4-2.8-9.5s-4.4-1.5-9.4-1.1l-10.2,0.7l-1.2-10.4c21.6-4.1,39.2-10,52.6-17.7
	l3.7,2.3c0.6,17.5,2.8,42.8,6.5,75.9c2.2,19.2,3.8,30.7,4.9,34.6c0.8,2.8,1.8,4.5,3.1,5.2s7.3,0.8,18.1,0.4l1.2,11.1
	c-16.4,1.3-29.1,2.4-38,3.4C593.6,932.3,580.7,934,559.8,936.9z M575.4,735.5c11.7-1.3,22.1,7.1,23.4,18.8
	c1.3,11.7-7.1,22.1-18.8,23.4c-11.7,1.3-22.1-7.1-23.4-18.8c-0.6-5.6,1-11.1,4.5-15.5C564.6,738.9,569.7,736.1,575.4,735.5
	L575.4,735.5z"/>
<path class="st2" d="M1338.9,823.7l4.4,3.5l-4.6,13.7c-6.1,4.8-12.8,8.6-20,11.5c-7.5,2.9-15.5,4.9-23.5,5.7
	c-19.7,2.2-35.9-1.8-48.6-11.9c-12.7-10.2-20.2-25.7-22.5-46.4c-1.5-13.1-1.1-24.2,1.4-33.2c1.9-7.3,5.9-13.8,11.4-18.9
	c6.2-5.7,12.9-11,20-15.6c7.8-5.1,16.7-8.3,26-9.3c14.8-1.7,27.6,1.1,38.2,8.3s17,20,19,38.4c0.3,2.3,0.5,5.7,0.7,10.4l-21.8,6.6
	c-6.8,1.2-16.7,2.6-29.8,4l-29.4,3.3c3.1,15.5,9.1,26.7,18,33.7s19.5,9.8,31.8,8.4c5.2-0.6,10.3-1.9,15.1-4
	C1329.6,829.9,1334.4,827.1,1338.9,823.7z M1257.3,779.6c8.2-0.2,16.4-0.7,24.6-1.7c7.2-0.8,14.6-2,22.4-3.6l-0.6-6.4
	c-1.3-11.2-4.2-19.1-8.9-23.8c-4.7-4.7-10.5-6.6-17.4-5.8c-4.5,0.4-8.8,2.1-12.3,5c-3.3,2.9-5.7,6.8-6.7,11
	C1257.2,758.9,1256.8,767.3,1257.3,779.6L1257.3,779.6z"/>
<path class="st2" d="M1362.7,847.6l-1.3-11.1c9.8-1.7,15.3-3.1,16.4-4.3s1.7-3.6,1.5-7.3c-0.5-9.2-2-25.4-4.6-48.5
	c-1.3-11.4-2.6-21.2-3.9-29.5c-0.8-5.1-1.4-8-2.1-8.9c-0.6-0.7-1.4-1.2-2.3-1.4c-1-0.3-6.4,0-16.2,0.9L1349,727
	c4.9-0.6,12.4-2.5,22.6-5.8c8.7-2.7,17.2-6.1,25.4-10.2l3.5-1.7c1.3-0.1,2.1,0.9,2.3,2.9v1.2c0,2.6,0.6,9.1,1.8,19.6l19-20
	c2.1-2.4,4.7-4.3,7.7-5.5c4.6-1.7,9.4-2.8,14.3-3.3c9.6-1.1,17.6-0.3,24.1,2.3c6.2,2.4,11.4,6.7,15,12.2c3.5,5.5,6,14.5,7.4,26.8
	c0.6,5.5,1.2,11.8,1.7,18.9c1.2,14.8,2.4,27.5,3.6,38.2c0.7,6.1,1.7,10.2,2.9,12.5c0.7,1.4,1.9,2.4,3.4,2.9
	c1.4,0.4,6.4,0.5,15.1,0.4l1.2,11.1l-16.8,1.3l-10.8,0.9l-27.9,4.1l-1.7-1.6c0.4-17.8-0.4-35.7-2.4-53.4c-2.6-23-5.6-37.1-9-42.1
	c-4.4-6.5-11.4-9.2-21-8.1c-5.7,0.5-11.1,2.8-15.5,6.5c-4.2,3.6-6.7,7.3-7.7,11c-0.5,1.5-0.3,6.1,0.6,13.9c3.7,32.9,6,51.7,6.8,56.4
	s1.9,7.6,3.3,8.5c1.8,1.2,8,1.5,18.5,0.8l1.3,11.1c-15.8,1.2-29.2,2.5-40,3.7C1391.4,843.6,1379.6,845.2,1362.7,847.6z"/>
<g id="Profil">
	<path class="st3" d="M1777.8,129.3l1.1,0.6L1777.8,129.3z"/>
	<path class="st4" d="M1751.7,131.5l0.6,1.1l0.6-1.1H1751.7z"/>
	<path class="st4" d="M1773.4,133.2c1.4,1.6,0.7,0.9,2.2,0H1773.4z"/>
	<path class="st4" d="M1731.6,136.5l-0.6,1.1h1.1L1731.6,136.5z"/>
	<path class="st4" d="M1746.1,139.9c0.8,1.1,0.1,0.3,1.1,1.1L1746.1,139.9z"/>
	<path class="st4" d="M1790.7,140.4"/>
	<path class="st4" d="M1810.7,158.3"/>
	<path class="st4" d="M1805.7,160.5"/>
	<path class="st0" d="M1718.9,152.4v2.2h1.7l-0.6-2.2H1718.9z"/>
	<path class="st4" d="M1712.3,170.8v1.2C1712.8,171,1712.8,171.8,1712.3,170.8z"/>
	<path class="st4" d="M1825.4,183.1v1.1C1826,183.2,1825.9,184.1,1825.4,183.1z"/>
	<path class="st4" d="M1711.7,192.6l0.6,1.1l0.6-1.1H1711.7z"/>
	<path class="st4" d="M1708.9,197.6c0.8,1.1,0.1,0.3,1.1,1.1L1708.9,197.6z"/>
	<path class="st4" d="M1704.4,209.8l0.6,1.1l0.6-1.1H1704.4z"/>
	<path class="st4" d="M1803.1,209.8l1.1,0.6L1803.1,209.8z"/>
	<path class="st4" d="M1815.4,226l1.1,0.6L1815.4,226z"/>
	<path class="st0" d="M1710.6,227.1l-0.6,4.5c1.5-0.9,0.8-0.2,1.7-1.7C1711.7,227.8,1712.9,228.5,1710.6,227.1z"/>
	<path class="st4" d="M1713.9,242.7l-0.6,1.1c1.7-0.7,0.7,0,1.7-1.1H1713.9z"/>
	<path class="st4" d="M1715.6,243.3l1.1,0.6L1715.6,243.3z"/>
	<path class="st4" d="M1734,247.2l1.1,0.6L1734,247.2z"/>
	<path class="st4" d="M1849.4,247.8"/>
	<path class="st4" d="M1853.3,248.9c0.8,1.1,0.1,0.3,1.1,1.1L1853.3,248.9z"/>
	<path class="st4" d="M1738.4,250.5"/>
	<path class="st0" d="M1704.4,260.6l0.6,4.4l1.1,0.6C1706.1,262.5,1706.1,261.9,1704.4,260.6z"/>
	<path class="st4" d="M1774.7,261.7c1,1.4,0.3,0.6,1.7,0H1774.7z"/>
	<path class="st4" d="M1744.6,270.6"/>
	<path class="st4" d="M1872.8,279l0.6,1.1C1873.1,279.6,1873.8,279.7,1872.8,279z"/>
	<path class="st0" d="M1889,301.3l-3.9,2.2l0.6,2.8h2.8c0.9-2.4,1.3-1.9,2.8-3.3h-1.1L1889,301.3z"/>
	<path class="st0" d="M1727.9,308l-0.6,2.2c1.1-0.9,1-1,1.7-2.2H1727.9z"/>
	<path class="st4" d="M1698.9,374.9c1,1.1,0,0.4,1.7,1.1L1698.9,374.9z"/>
	<path class="st4" d="M1701.1,392.7l-0.6,1.1h1.1L1701.1,392.7z"/>
	<path class="st4" d="M1679.4,421.1l-0.6,1.1h1.1L1679.4,421.1z"/>
	<path class="st4" d="M1521.6,540.4l0.6,1.1l0.6-1.1H1521.6z"/>
	<path class="st4" d="M1533.9,543.8l1.1,0.5L1533.9,543.8z"/>
	<path class="st4" d="M1536.7,546.5l-0.6,1.1C1537.1,547,1536.4,547.2,1536.7,546.5z"/>
	<path class="st4" d="M1519.4,556.6v1.1C1519.9,556.7,1519.9,557.6,1519.4,556.6z"/>
	<path class="st4" d="M1530.5,560.5l1.1,0.6L1530.5,560.5z"/>
	<path class="st4" d="M1533.3,586.7l-0.6,1.1C1533.8,587.1,1533.1,587.3,1533.3,586.7z"/>
	<path class="st4" d="M1542.2,599l0.6,1.1l0.6-1.1H1542.2z"/>
	<path class="st4" d="M1551.2,658.6c0.8,1.1,0,0.3,1.1,1.1L1551.2,658.6z"/>
	<path class="st4" d="M1554.5,703.2v1.7l0.6-1.7H1554.5z"/>
	<path class="st4" d="M1559,732.7l0.6,1.7c1.1-1,0.4,0,1.1-1.7H1559z"/>
	<path class="st4" d="M1552.3,742.2"/>
	<path class="st4" d="M1552.8,756.2v1.7h1.1L1552.8,756.2z"/>
	<path class="st4" d="M1558.4,779.6c0.9,1.4,0.3,0.7,1.7,0H1558.4z"/>
	<path class="st4" d="M1545,780.7"/>
	<path class="st4" d="M1553.9,782.4l1.1,0.5L1553.9,782.4z"/>
	<path class="st4" d="M1543.3,795.2l1.1,1.7C1543.8,795.2,1544.5,796.2,1543.3,795.2z"/>
	<path class="st4" d="M1557.8,801.9l-0.6,1.1l1.7-1.1H1557.8z"/>
	<path class="st4" d="M1555.6,803l1.1,1.1L1555.6,803z"/>
	<path class="st4" d="M1558.4,803.5"/>
	<path class="st4" d="M1556.7,806.3c0.5,2,0,1.1,1.1,2.2L1556.7,806.3z"/>
	<path class="st4" d="M1553.4,816.9l1.1,2.2L1553.4,816.9z"/>
	<path class="st4" d="M1546.7,819.7l1.1,2.2l0.6-0.6v-0.6L1546.7,819.7z"/>
	<path class="st4" d="M1571.2,823.6l1.1,0.5L1571.2,823.6z"/>
	<path class="st4" d="M1563.4,835.9l1.1,0.6L1563.4,835.9z"/>
	<path class="st4" d="M1564,839.2l0.6,1.1C1564.3,839.8,1565,840,1564,839.2z"/>
	<path class="st4" d="M1553.4,840.9l1.1,0.6L1553.4,840.9z"/>
	<path class="st4" d="M1566.2,842.6l1.1,0.6L1566.2,842.6z"/>
	<path class="st4" d="M1550,847"/>
	<path class="st4" d="M1556.7,857l1.1,0.6L1556.7,857z"/>
	<path class="st4" d="M1553.9,862.1"/>
	<path class="st4" d="M1565.6,867.1c1,1.1,0,0.4,1.7,1.1C1566.3,867.1,1567.3,867.8,1565.6,867.1z"/>
	<path class="st4" d="M1550,880.5v1.1C1550.6,880.6,1550.5,881.5,1550,880.5z"/>
	<path class="st4" d="M1556.2,894.4l-0.6,1.1h1.7l-0.6-1.1H1556.2z"/>
	<path class="st4" d="M1560.1,903.9v1.7h1.1L1560.1,903.9z"/>
	<path class="st4" d="M1558.4,917.3v1.1C1558.9,917.4,1558.9,918.3,1558.4,917.3z"/>
	<path class="st4" d="M1555.6,940.7c1.4,0.9,0.1,0.5,1.7,0H1555.6z"/>
	<path class="st4" d="M1559,954.6l1.1,0.6L1559,954.6z"/>
	<path class="st4" d="M1555.6,978.6v1.1C1556.2,978.7,1556.1,979.6,1555.6,978.6z"/>
	<path class="st4" d="M1542.2,1028.2c0.8,1.1,0,0.3,1.1,1.1L1542.2,1028.2z"/>
	<path class="st4" d="M1543.9,1028.2l1.7,1.1C1544.6,1028.2,1545.6,1028.9,1543.9,1028.2z"/>
	<path class="st2" d="M1985.4,794.7c2-3.6,4.8-14.2,2.2-20.1c-2-4.2-15.3-7.8-18.4-7.8v-8.4c5,2.6,8.9,6.3,15.6,7.3l1.1-0.6
		c0.2-1.1,0.4-2.2,0.6-3.3c-4.4-2.9-13.7-9.4-17.8-6.7l-2.8-5.6c-4.3-2.5-6.9,0-13.4-1.1c-17-2.9-34.3-5.5-49.6-7.8
		c0.7-3.5,1.5-7.1,2.2-10.6c-1.1-8.2-2.2-16.3-3.3-24.5v-1.1c2.1-4,6.4-5.3,5-11.2s-9-16.2-6.7-24.5c1.1-4,4.2-3.8,4.5-10l-17.8,1.1
		l-1.1-1.7c19.6-2.4,37.6-0.6,55.7-4.5l1.1-1.1c-0.9-13.2-5.8-23.5-8.4-34c-5.3-21.7-3.4-43.1-10.6-64.7
		c-6.3-19.1-14.6-41.1-18.4-62.4c-0.2-9.7-0.4-19.3-0.6-29c-0.9-5-3.9-12.4-2.2-19s5.7-13.9,4.5-23.4c-1.2-9-9.4-22.6-6.7-34.6
		l4.5-10c2.1-10.6-0.8-20.1-2.2-29c-0.7-9.1-1.5-18.2-2.2-27.3c-4-20-12.2-34.8-22.3-48.5c-5-6.8-13.5-9.3-19.5-15
		c-5.3-5.1-6.4-11.3-16.2-12.3c-1.9-3.2-1.1-3.5,0-7.3c-3.8-5.5-8.5-14.1-15.1-16.7c-14.3,7.1-29.5,17.4-40.1,28.4h1.1
		c-5.5,3.4-22,20.2-28.4,20.6c2.2-17.2,36.8-42,50.7-49.6c4.6-2.5,12.6-1.8,17.3-5c6.1-4.2,1.9-9.1,5-15.6c0.9-1.9,4.3-3.5,5-6.1
		c1.4-5.3-2.1-9-0.6-14.5l-2.8-0.6l2.8-0.6c-1.1-9-3.4-30.9-7.3-37.9c-2-3.6-12.6-7.8-8.9-12.8l1.1-1.1c-1.8-2-2.6-4.1-5-5.6
		l-8.4,2.8c-1.1-4.4-2.4-7.1-7.8-8.4c0.8-1.1,1.5-2.2,2.2-3.3l-0.6-1.1c-8.6-1.2-15.6,0.8-22.9,1.1l-7.3-3.3
		c-5.3-1.6-13.3,2.4-17.3,3.9h-0.6c1.3-1.8,2-1.4,2.8-3.9c-11.8,0-14.2,8.6-20.1,14.5c-2.9-2-3.4-2-8.4-1.7
		c-2.6,3.4-7.1,10.6-7.8,15.1l-3.3,0.6c0.4,2.8,1.6,5.5,3.3,7.8c-3,10.7-6.9,21.2-11.7,31.2c-2.1,4.1,2.9,5,1.1,9.5
		c-2.7,6.7-8.7,10.9-11.7,18.4c2.3,3.9,3.3,6.6,8.9,7.2l1.1,1.7l-5.6,2.2c-3.3,2.3-4.2,8.1-3.9,13.9l6.7,8.9c0.8,1.5,0.1,0.3,1.7,0
		c1,3.1,0.7,4,0,7.3l3.3,0.6c-1.1,5.8-18.9,23.3-5.6,27.9c1.1-2-0.3-0.9,2.2-1.7c0.6,4.6,3.8,9.5,6.1,13.9l1.7,0.6
		c5.5-4,12.8-5.7,16.7-11.1c0.7-2.6,1.5-5.2,2.2-7.8c1.9-2.9,6.5-3.3,8.4-6.7l13.4,1.1v1.1l1.1,3.3c-0.2,0.6-0.4,1.1-0.6,1.7
		c-3.9,2.6-8.3,0.5-13.4,1.7l-10.6,9.5c0.6,7.1,0.1,6.1-3.3,10.6c1,3.8,3,5.7,5,8.4c-3.5,6-10.7,7.7-15.6,12.3
		c0.3,2.6,1.5,4.9,3.3,6.7c-2,11.6-14.7,19.6-19,29.5c-8.8,20.6-6.2,48.2-15.6,66.3c-2.5,4.8-7.6,4.1-11.7,7.3l-8.4,13.9
		c-3.7,4.8-9.7,7.9-15.1,11.1c-3,4.8-5.9,9.7-8.9,14.5c-2.8,3.9-6.8,5.5-10,8.9c-2.1,4.3-4.1,8.5-6.1,12.8c-2.2,3.2-3.6,0.4-6.7,1.7
		s-18.7,20.2-19,25.1c4.1,5.7,25,25.7,24,29.5l4.5,1.1v0.5l-3.9,2.2c-3.5-0.2-6.9-1.6-9.5-4l0,0l0,0c-1.9-1.8-3.6-3.7-5.1-5.7
		c0,0.1,0.1,0.1,0.1,0.2h-1.1V529c-1.6-2-3.4-3.7-5.6-5.1l-0.6,0.5c2,2.5,5.9,5.3,3.9,10c-1.4,2-1.8,0.6-4.5,1.7
		c-2.4,1.3-2.8,2.8-2.8,5c-2.5-0.2-2.4,0-4.5,1.1c-0.7-1.3-1.5-2.6-2.2-3.9c-2.1,1.3-1.4,1.6-1.1,5c-2.6-0.2-1.5-1.1-2.8,1.1
		c-2.6-1.2-4.7-3.4-5.6-6.1h-1.7c0.2,1.5,0.4,3,0.6,4.5c-2,0-1.4-0.4-4.5,0c-0.2-1.5-0.4-3-0.6-4.5c-2.7,1.2-2.3,1-1.1,3.3l-2.8,1.7
		l-2.2-2.8l-1.7,2.8l2.8,2.8l11.7-1.7l0.6,0.6v1.7c-5.8,1.8-10.2-0.6-17.3,1.1c-7.6,1.9-10.1,8.1-19,8.4c-2.5-3.1-4.1-4.3-3.3-9.5
		c3.2-1.4,3.4-4.5,6.7-6.1c1.1-0.9,0.8-0.8,2.8-1.1l2.8,5l2.2,0.6c-0.7-2.4-1.5-4.8-2.2-7.3c2.8-0.2,6.5-2.5,11.7-2.8
		c0.7-1.9,1.5-3.7,2.2-5.6v-0.6h-3.3l-1.1-4.5l-1.1-0.5h-0.6c0,4.3,0.7,6.5,2.2,8.9l-15.6,1.1c-0.2-0.4-0.4-0.7-0.6-1.1
		c0.8-5.4,4.1-8.4,5.6-14.5c11-3.1,24.3-4.6,36.8-5c3.1,3.1,4.6,6.8,8.4,9.5h0.6l-6.7-11.2l4.5-2.8V507c-4.9,0.9-10.1,3.9-13.9,5
		l-10-0.6c-7.4,1.1-14.6,2.8-21.7,5c-1.9,6.3-7.4,12.9-4.5,17.8c-12.3,3.1-33.4,5.7-42.9,15c-0.4,4.1,19.9,41.6,23.4,48.5
		c7.8,15.4,9.9,56,12.8,79.7c2.8,22.7,1.9,56.2-3.3,79.7c-1.9,8.7-5.6,20.8-3.9,30.7c1.6,9.5,3.7,17.1,7.2,24
		c-1.3,1.5-1.8,25.6-1.1,29.5c1.4,8,6.8,14.5,6.1,24.5c-2.1,29-2,55.6-6.7,83.6c-2.8,17-0.6,30.2-3.9,46.3
		c-2.4,11.1-4.8,22.3-7.3,33.4c-0.6,0.4-1.1,0.8-1.7,1.1l-17.3-21.7c-0.4,1.3-0.7,2.6-1.1,3.9l-4.5-3.9l-1.7,1.7l14.5,20.1
		c4,1.8,7.6,1,9.5,4.5v5c3.6,2,11.6,0.7,16.7,1.7c0.2-22,11.1-52.9,16.7-73c1.9-6.9-0.2-11.9,1.7-19c5.8-22,8.6-59.7,10-84.2
		c18.8-3.8,20.4,32.3,17.3,50.7c-8.4,48.8-11.8,121.2-0.6,170.6c2,8.9,1,20.2,3.9,27.9c5.7,1,11.5-1.8,15.6-2.2
		c4.7-4.9-1.1-34.7-1.1-45.7c-0.2-35.4-0.2-64.5,3.9-94.2c0.7-4.8-1.6-11.1,1.1-16.2c2.3-3.3,57.9-7.4,68.6-3.9
		c3.8,4.2,1.2,15,2.2,21.7c2.2,13.7,1,31.7,6.1,44.6c2.8,0.7,9.4,1.5,12.3,0.6c5.6-6.3,2.4-60.7,3.3-68.6c25.6-1.7,46-7.8,69.1-13.4
		c10.4-2.5,19.9-1.8,27.9-5.6l1.1,1.1c0.2,8.2,0.4,16.3,0.6,24.5c-0.2,5-0.4,10-0.6,15c1.1,13.4,2.2,26.8,3.3,40.1v26.8
		c-5.2,3.8-13.1,3-15.6,9.5c6.8-1.5,8-2.5,15.6-3.9c0.8,1.1,0,0.3,1.1,1.1c-5.3,17.9-40.5,33.8-39,50.2l-7.8,1.1l-2.2,3.3l1.7,2.8
		c16.8,6.3,70.6,2.3,81.4-4.5c6-3.7,6.9-8.3,10.6-14.5c5.5-9.3,18-6.5,29-7.2c3.1-4.8,5.4-10.1,6.7-15.6c-0.2-1.5-0.4-3-0.6-4.5
		c1.2-2.8,6-4.2,7.2-7.8c4.2-11.9,0.5-30.3,2.2-41.8c5.8-39.8,14.3-94.7,4.5-136c-2.8-12,0-23.5-2.8-34l1.1-1.1
		c1.4,4.8,6.2,9.9,11.7,10.6c3.7-5.8,7.8-11.4,12.3-16.7c8.5,7.4,13.6,19.5,20.6,28.4c-0.2,0.9-0.4,1.9-0.6,2.8
		c2,8.2-1.9,16.6,0.6,25.1l3.9,11.7c3.4,2,3.8,1.1,7.3-0.5l-1.7,3.3l1.7,2.2l2.8-0.6c7.2-6.9,23.5-59.6,20.6-75.3
		c-2-10.7-4.5-21.2-3.3-32.3L1985.4,794.7z M1930.2,612.3c-0.7-0.4-1.3-1-1.7-1.7C1929.6,611.4,1929.5,611.2,1930.2,612.3
		L1930.2,612.3z M1926.9,628.5l1.1,0.6v0.5l-1.1,0.6l-0.6-1.1L1926.9,628.5z M1923,624h1.7C1923.1,624.6,1924.4,625,1923,624z
		 M1924.1,586.1c-1.7-0.7-0.7,0-1.7-1.1C1924.1,585.7,1923.1,585,1924.1,586.1L1924.1,586.1z M1923,593.3h1.1l-1.7,1.1
		C1922.6,594.1,1922.8,593.8,1923,593.3L1923,593.3z M1915.8,536.5c-1.7-0.7-0.7,0-1.7-1.1C1915.7,536.1,1914.7,535.4,1915.8,536.5
		L1915.8,536.5z M1902.9,506.4l-1.1-1.1C1902.8,506.1,1902.1,505.4,1902.9,506.4L1902.9,506.4z M1901.8,464.6l-0.6,1.1
		c-0.2-0.4-0.4-0.7-0.6-1.1H1901.8z M1609.1,507v-1.1C1609.6,506.9,1609.7,506,1609.1,507z M1691.6,555.5l-0.6-1.1
		C1692.1,555.1,1691.4,555,1691.6,555.5L1691.6,555.5z M1692.7,845.4c-1.3,0.7-0.7,1.4-1.7,0H1692.7z M1691.6,893.9
		c-1.3,0.7-0.7,1.4-1.7,0H1691.6z M1681.6,494.7c0.5,1,0.5,0.1,0,1.1V494.7z M1654.9,514.8c-0.7-0.4-1.3-1-1.7-1.7L1654.9,514.8z
		 M1644.9,460.2l1.1,1.7h-1.1V460.2z M1641.5,528.2c11-12.6,29.8-17,39.6-31.2h2.2c1.1,12.8,2.2,25.6,3.3,38.5l-0.6,0.5
		c-13.6-1.5-31.8-7.1-44.6-7.2L1641.5,528.2z M1683.9,755.6l-0.6-1.1C1684.3,755.2,1683.6,755.1,1683.9,755.6L1683.9,755.6z
		 M1683.3,566.6l-1.1-1.1l0.6-0.6l1.7,0.6L1683.3,566.6z M1680.5,701l-0.6-1.1C1680.9,700.6,1680.2,700.5,1680.5,701z M1678.2,868.8
		h-0.6c-0.2-0.7-0.4-1.5-0.6-2.2C1678.3,867.6,1677.7,866.7,1678.2,868.8L1678.2,868.8z M1676.6,748.9c-0.2-0.4-0.4-0.7-0.6-1.1
		C1677,748.5,1676.3,748.4,1676.6,748.9L1676.6,748.9z M1673.2,538.8c0.2-0.4,0.4-0.7,0.6-1.1
		C1673.5,538.3,1674.3,538.1,1673.2,538.8L1673.2,538.8z M1669.3,583.4c-1.1-0.8-0.3,0-1.1-1.1L1669.3,583.4z M1642,710.4l1.7,1.1
		v0.6l-2.2-0.6C1641.6,711.2,1641.8,710.8,1642,710.4z M1640.9,534.8c-0.2,0.4-0.4,0.7-0.6,1.1l-0.6-1.1H1640.9z M1633.1,472.4
		c-0.2-0.4-0.4-0.7-0.6-1.1C1633.5,472,1632.8,471.9,1633.1,472.4L1633.1,472.4z M1623.1,548.8h1.1v1.7h-0.6l-1.1-1.1L1623.1,548.8z
		 M1609.1,548.8c0.2,0.8,0.4,1.5,0.6,2.2h-0.6V548.8z M1600.8,542.6l-0.6-1.1C1601.2,542.3,1600.5,542.1,1600.8,542.6L1600.8,542.6z
		 M1574.6,826.4l1.1,1.1C1574.6,826.7,1575.3,827.5,1574.6,826.4L1574.6,826.4z M1579,852.6c-0.4,0.4-0.7,0.8-1.1,1.1l-0.6-0.6
		l0.6-1.1h1.1V852.6z M1578.5,780.7l0.6-1.1h1.1C1579.1,780.7,1580.2,780,1578.5,780.7L1578.5,780.7z M1582.4,861.5
		c1.1,0.8,0.3,0,1.1,1.1L1582.4,861.5z M1564.5,789.6l-1.7,1.1c-4.2-16.7,0.3-39.4,1.7-56.9c8.9-2.5,59.4-10.8,63.6-15l1.1,1.1
		c-0.5,1.5-0.3,1,0.6,2.2c6-2.5,38.6-1.3,44,1.7h1.1c1.2,8.1-6.5,20.4-8.4,29c0.2,4.7,0.4,9.3,0.6,13.9
		C1641.8,760.5,1577,769.7,1564.5,789.6L1564.5,789.6z M1669.9,844.2c-1.3,0.7-0.7,1.4-1.7,0H1669.9z M1658.8,840.3
		c-1.7-0.7-0.7,0-1.7-1.1L1658.8,840.3z M1650.4,773.4c-0.6,0.7-1.4,1.2-2.2,1.7l-1.2-1.1l0.6-0.5L1650.4,773.4z M1628.7,785.1
		c-0.2-0.4-0.4-0.7-0.6-1.1C1629.1,784.8,1628.4,784.6,1628.7,785.1L1628.7,785.1z M1623.1,867.6c-0.2-0.4-0.4-0.8-0.6-1.1
		C1623.5,867.3,1622.8,867.1,1623.1,867.6L1623.1,867.6z M1618.6,909.4l-1.7,1.7c0.2-1.1,0.4-2.2,0.6-3.3L1618.6,909.4z
		 M1603.6,775.1l1.7,1.1C1603.2,776.4,1604.6,776.8,1603.6,775.1L1603.6,775.1z M1604.2,779.6l-1.2,2.2c0.2-0.7,0.4-1.5,0.6-2.2
		H1604.2z M1596.4,945.1l-0.6-1.1C1596.8,944.8,1596.1,944.6,1596.4,945.1L1596.4,945.1z M1595.3,925.6l-0.6-1.1
		C1595.6,925.2,1595,925.1,1595.3,925.6L1595.3,925.6z M1595.3,829.7c1,0.7,0.3,0.6,0.6,1.1C1595.6,830.5,1595.4,830.1,1595.3,829.7
		L1595.3,829.7z M1593.6,935.1c1.1,1,0.4,0,1.1,1.7h-1.1V935.1z M1594.1,1015.9c-0.2-0.4-0.4-0.8-0.6-1.1c1.1-0.8,0.3,0,1.1-1.1
		l1.7,1.1c-0.2,0.4-0.4,0.8-0.6,1.1H1594.1z M1596.4,1059.4v-1.1C1596.8,1059.3,1596.8,1058.4,1596.4,1059.4L1596.4,1059.4z
		 M1600.3,1024.3l1.1,1.1C1600.3,1024.6,1601,1025.4,1600.3,1024.3L1600.3,1024.3z M1601.9,907.8v-2.2c0.2,0.8,0.4,1.5,0.6,2.2
		H1601.9z M1601.9,899.4l-0.6-1.1C1602.3,899,1601.6,898.9,1601.9,899.4L1601.9,899.4z M1603.1,995.9c0.2-0.6,0.4-1.1,0.6-1.7
		C1604,995.6,1603.8,994.7,1603.1,995.9L1603.1,995.9z M1604.2,966.9l-0.6-1.1C1604.6,966.5,1603.9,966.3,1604.2,966.9L1604.2,966.9
		z M1607,1060.5c0.2-0.6,0.4-1.1,0.6-1.7C1607.5,1060.3,1608.1,1059.3,1607,1060.5L1607,1060.5z M1609.2,872.1
		c-0.2-0.4-0.4-0.8-0.6-1.1C1609.6,871.7,1608.9,871.6,1609.2,872.1L1609.2,872.1z M1610.9,916.1V915
		C1611.3,916,1611.3,915.2,1610.9,916.1L1610.9,916.1z M1609.8,864.8l-1.1,1.1c-2.4-2.5-8.1-11.3-7.8-13.9c4.5,1.3,8.4,4,11.2,7.8
		C1613.2,862.6,1611.9,863.9,1609.8,864.8L1609.8,864.8z M1613.1,839.7l1.1,0.6l-1.1,1.1V839.7z M1613.7,911.1l0.6-1.1h1.1
		C1616.3,911.6,1615.2,910.8,1613.7,911.1L1613.7,911.1z M1614.2,914.4c1.7,0.7,0.7,0,1.7,1.1L1614.2,914.4z M1627,945.1l-0.6-1.1
		h1.1L1627,945.1z M1633.1,940.7l1.1-0.6C1635.4,940.4,1633.1,940.7,1633.1,940.7L1633.1,940.7z M1687.2,885.5
		c-3.9,14.6-1.2,30.4-1.7,46.8c-19,9.7-47.8,3-66.9,10h-1.7c1.5-16.9,3-33.8,4.4-50.7c-0.2-7.1-0.4-14.1-0.6-21.2
		c0.9,1.1,0.8,0.8,1.1,2.8c5.8,3.3,55.8-1.1,65.8-2.2v1.1C1687.8,872.1,1688.1,881.8,1687.2,885.5L1687.2,885.5z M1690.5,772.9
		c-1.7-0.7-0.7,0-1.7-1.1C1690.5,772.5,1689.5,771.7,1690.5,772.9L1690.5,772.9z M1691.1,898.9l2.2,0.6v1.1
		c-0.4,0.5-0.8,1.1-1.1,1.7h-2.2c-0.2-0.6-0.4-1.1-0.6-1.7L1691.1,898.9z M1691.1,918.4v-1.1
		C1691.6,918.3,1691.6,917.4,1691.1,918.4L1691.1,918.4z M1690.5,987l1.1,1.1v1.7h-1.7C1690.1,988.8,1690.3,987.9,1690.5,987
		L1690.5,987z M1692.8,925.1l-0.6-1.1C1693.2,924.7,1692.5,924.5,1692.8,925.1L1692.8,925.1z M1693.3,1006.5h1.7
		C1693.6,1007.1,1694.2,1007.8,1693.3,1006.5L1693.3,1006.5z M1695,970.8c1.1,1,0.4,0,1.1,1.7L1695,970.8z M1696.7,934l-0.6-1.1
		C1697.1,933.6,1696.4,933.5,1696.7,934L1696.7,934z M1698.9,997.6l-0.6-1.1C1699.3,997.2,1698.6,997,1698.9,997.6L1698.9,997.6z
		 M1704.5,724.4l0.6-1.1l1.1,1.1H1704.5z M1703.9,542.1v-0.5l1.7-0.6C1707.5,540.5,1705.6,541.9,1703.9,542.1L1703.9,542.1z
		 M1813.2,572.2l-0.6,1.1l-0.6-1.1H1813.2z M1810.9,934v-1.7h0.6C1811.3,932.9,1811.1,933.4,1810.9,934z M1811.5,895.5h1.1v2.8h-0.6
		C1811.8,897.4,1811.7,896.5,1811.5,895.5L1811.5,895.5z M1799.8,729.4l-0.6,1.1c-0.2-0.4-0.4-0.7-0.6-1.1H1799.8z M1795.3,699.9
		c0.2,0.4,0.4,0.8,0.6,1.1h-1.1C1794.9,700.6,1795.1,700.2,1795.3,699.9L1795.3,699.9z M1795.3,714.4l-1.1-1.1
		C1795.3,714,1794.5,713.3,1795.3,714.4L1795.3,714.4z M1793.6,554.9l-0.6-1.1C1794.1,554.5,1793.4,554.4,1793.6,554.9L1793.6,554.9
		z M1792,722.7l1.7,0.6c2.4,1.5,2.9,3.4,1.7,5.6c-1.6,1.8-5.7,1.9-8.4,0.6h-1.1v-0.6C1787.5,726.1,1790,725.1,1792,722.7z
		 M1785.3,562.7h1.1l-0.6,1.1C1785.7,563.5,1785.5,563.1,1785.3,562.7L1785.3,562.7z M1788.7,708.7c-0.2,0.4-0.4,0.8-0.6,1.1
		l-0.6-1.1H1788.7z M1764.1,536c3.8,1.7,24.6,20.5,25.6,24c-16.4-0.8-17-17.8-32.9-20.1C1760,538.4,1761.8,538.1,1764.1,536z
		 M1784.7,841.5v0.5l-1.1,0.6l-0.6-1.1l0.6-0.6L1784.7,841.5z M1779.7,558.3l-2.2,1.1c0.2-0.4,0.4-0.8,0.6-1.1H1779.7z
		 M1754.1,532.7c-2-0.4-1.7-0.2-2.8-1.1C1753.3,531.9,1753,531.7,1754.1,532.7L1754.1,532.7z M1741.3,538.8
		c11.4,0.8,17.8,1.7,25.1,7.3c4,3,4.3,7.1,10,8.9l1.1,1.7c-0.2,0.7-0.4,1.5-0.6,2.2c-9.8,1.3-19.8,0.9-29.5-1.1l-7.3-1.7
		c-4.5,1.1-10,5.7-14.5,5.6l-1.1,1.7c0.8,1.5,1.5,3,2.2,4.5c-2.2,1.9-3.5,1.1-4.5,4.5h-3.3c-0.2-0.4-0.4-0.8-0.6-1.1
		c1.7-4.8,1-10.4-0.6-15.6C1724.6,548.7,1735.1,546.2,1741.3,538.8L1741.3,538.8z M1774.2,562.2l0.6-1.1c0.2,0.4,0.4,0.7,0.6,1.1
		H1774.2z M1768,854.8l-1.1-1.1C1767.9,854.5,1767.2,853.8,1768,854.8z M1761.3,744.5c-1-0.8-0.3,0-1.1-1.1L1761.3,744.5z
		 M1758,726.6l-1.1-1.1C1757.9,726.3,1757.2,725.5,1758,726.6z M1746.8,575c-1.7-0.7-0.7,0-1.7-1.1
		C1746.8,574.6,1745.8,573.8,1746.8,575z M1740.1,787.4c-1.7-0.7-0.7,0-1.7-1.1C1740.1,787,1739.1,786.2,1740.1,787.4L1740.1,787.4z
		 M1730.7,580.6h-1.7c0.2-0.4,0.4-0.7,0.6-1.1h0.6C1730.3,579.8,1730.5,580.2,1730.7,580.6L1730.7,580.6z M1718.4,531
		c-0.8-0.6-1.3-1.3-1.7-2.2L1718.4,531z M1718.4,851.5c-1.3,0.7-0.7,1.4-1.7,0H1718.4z M1713.4,539.9c-0.2,0.4-0.4,0.8-0.6,1.1
		c-0.2-0.4-0.4-0.7-0.6-1.1H1713.4z M1710.6,548.8l1.1,0.6l-1.1,1.1V548.8z M1713.9,566.1l2.2,0.5v6.1l-5.6,1.7
		c-0.2-0.8-0.4-1.5-0.6-2.2L1713.9,566.1z M1710,861c1.1,1.1,0.6,0.2,1.1,2.2h-1.1V861z M1709.4,935.1l1.7,1.1
		C1709.5,935.5,1710.5,936.2,1709.4,935.1L1709.4,935.1z M1759.1,933.5c0.2-0.4,0.4-0.8,0.6-1.1
		C1759.7,933.4,1760.2,932.9,1759.1,933.5L1759.1,933.5z M1763,932.9h-0.6c-0.4-0.4-0.7-0.8-1.1-1.1l1.1-1.1h1.1
		C1763.3,931.4,1763.2,932.1,1763,932.9L1763,932.9z M1808.7,922.9c0.2-0.4,0.4-0.7,0.6-1.1C1809.5,922.9,1809.7,922.1,1808.7,922.9
		L1808.7,922.9z M1807,916.2c-9.4,1.1-24.2,5.2-34,7.3l-63.6,6.1h-0.6c-2.9-10.5,1.5-60.1,5-62.4c4.3-2.1,12.2,0.5,16.7-0.6
		c12.3-2.7,67.9-1.8,75.3-8.4l6.1,1.7L1807,916.2z M1810.9,1027.2v-1.7h2.2c0.2,0.6,0.4,1.1,0.6,1.7v0.6h-1.7L1810.9,1027.2z
		 M1817,1041.1h-2.2l-1.1-0.6c0.2-0.4,0.4-0.8,0.6-1.1c2,0.4,1.7,0.2,2.8,1.1L1817,1041.1z M1817,956.9v-1.7l1.1,1.1L1817,956.9z
		 M1819.3,852.7c-0.2-0.9-0.4-1.8-0.6-2.8c0.4,0.9,0.8,1.9,1.1,2.8H1819.3z M1822.6,920.1c-0.2-0.4-0.4-0.8-0.6-1.1
		C1823.1,919.7,1822.4,919.5,1822.6,920.1L1822.6,920.1z M1823.7,919.6c1.7,0.7,0.7,0,1.7,1.1L1823.7,919.6z M1836,736.7l-1.1-1.7
		C1836,736,1835.3,735,1836,736.7z M1827.6,1065c1.7-2.9,3.3-3.9,5.6-6.1c-0.7-1.3-1.5-2.6-2.2-3.9l8.9,1.7
		C1838.5,1059.7,1830.8,1063.7,1827.6,1065z M1851.1,1058.9l-0.6-1.1C1851.5,1058.5,1850.8,1058.3,1851.1,1058.9L1851.1,1058.9z
		 M1858.3,640.2c-0.2-0.4-0.4-0.8-0.6-1.1C1858.8,639.8,1858.1,639.7,1858.3,640.2L1858.3,640.2z M1869.5,1071.1
		c0.2-0.6,0.4-1.1,0.6-1.7h0.6C1869.8,1071.1,1870.6,1070.1,1869.5,1071.1L1869.5,1071.1z M1875.6,732.2l1.7,0.5v0.6h-2.3
		L1875.6,732.2z M1875,1057.2v-0.6l2.2-1.1l1.7,0.6C1877.7,1057,1877.4,1057.1,1875,1057.2L1875,1057.2z M1895.7,707.7l-1.1-1.1
		C1895.6,707.3,1894.9,706.6,1895.7,707.7L1895.7,707.7z M1897.9,706.6l-1.1,0.6c-0.2-0.6-0.4-1.1-0.6-1.7L1897.9,706.6z
		 M1893.4,693.2h1.7c0.4,1.9,0.8,3.7,1.1,5.6l-3.9-1.1L1893.4,693.2z M1890.1,693.7l1.1,1.1C1890.1,694.1,1890.8,694.8,1890.1,693.7
		L1890.1,693.7z M1886.7,697.1c-1.7-0.7-0.7,0-1.7-1.1L1886.7,697.1z M1883.9,1005.4l0.6-1.1c0.2,0.4,0.4,0.7,0.6,1.1H1883.9z
		 M1883.9,955.7c0.4-0.5,0.8-1.1,1.1-1.7h1.1l-1.1,2.2L1883.9,955.7z M1885.6,1006.5c0.2-0.6,0.4-1.1,0.6-1.7
		C1886.6,1006.2,1886.4,1005.3,1885.6,1006.5L1885.6,1006.5z M1886.7,821.4c1.1,0.8,0.3,0,1.1,1.1L1886.7,821.4z M1889.5,692.6
		c-1.1-1.5-0.6-0.5-0.6-2.2l1.1,0.5C1889.9,691.5,1889.7,692,1889.5,692.6L1889.5,692.6z M1892.3,814.7V813c1.1,1,0.4,0,1.1,1.7
		H1892.3z M1895.7,985.3l1.1,1.1C1895.7,985.6,1896.4,986.3,1895.7,985.3L1895.7,985.3z M1898.4,937.4l-2.2-0.6
		c0.2-0.4,0.4-0.7,0.6-1.1h1.7L1898.4,937.4z M1899.6,691.5h-1.7v-1.7l1.7,1.1V691.5z M1902.9,748.4c-1.1-0.8-0.3,0-1.1-1.1
		L1902.9,748.4z M1901.2,752.8c0.2-1.3,0.4-2.6,0.6-3.9c0.2,1.1,0.4,2.2,0.6,3.3L1901.2,752.8z M1903.5,807.5l-0.6-1.1
		C1903.9,807.1,1903.2,806.9,1903.5,807.5L1903.5,807.5z M1904.6,834.8l-1.1-1.7l2.2,0.6L1904.6,834.8z M1950.3,757.3
		c1,1.6,0.7,0.4,0,2.2v1.1l-1.1-1.1L1950.3,757.3z M1915.2,766.2l1.1,1.1C1915.2,766.5,1915.9,767.3,1915.2,766.2L1915.2,766.2z
		 M1921.8,764c-0.2-0.4-0.4-0.7-0.6-1.1h1.1L1921.8,764z M1921.3,760.6V759l1.1,0.6L1921.3,760.6z M1925.7,823.1
		c1.1,0.8,0.3,0,1.1,1.1L1925.7,823.1z M1923,750v-2.2c3.1,0.2,4.5,0.7,6.1,2.2H1923z M1930.8,753.9c1.7,0.7,0.7,0,1.7,1.1
		C1930.8,754.3,1931.8,755.1,1930.8,753.9L1930.8,753.9z M1934.1,810.2v-1.7h0.6C1934.5,809.1,1934.3,809.7,1934.1,810.2
		L1934.1,810.2z M1935.3,792.4v-1.1C1935.7,792.3,1935.8,791.4,1935.3,792.4L1935.3,792.4z M1935.8,752.8l-0.6-1.1
		C1936.2,752.4,1935.6,752.3,1935.8,752.8L1935.8,752.8z M1938.6,809.1h1.1l-0.6,1.1L1938.6,809.1z M1941.4,778.4v-1.7h1.6
		C1942.5,777.3,1941.9,777.9,1941.4,778.4L1941.4,778.4z M1945.3,820.2h1.1l-2.2,1.7L1945.3,820.2z M1952.5,846.4v1.1l-7.8-10
		l2.2-1.1c3.9,1.9,4.3,5.1,6.7,8.4L1952.5,846.4z M1955.9,791.3c-0.2,0.4-0.4,0.7-0.6,1.1l-0.6-1.1H1955.9z M1956.4,871
		c-1.3,0.7-0.7,1.4-1.7,0H1956.4z M1956.4,885.5l-0.6,0.6h-0.6c-0.4-1.7-0.8-3.3-1.1-5l2.2,0.6c0.2,0.6,0.4,1.1,0.6,1.7
		C1956.8,884,1956.6,884.7,1956.4,885.5L1956.4,885.5z M1958.1,883.2v-1.1C1958.6,883.1,1958.6,882.3,1958.1,883.2L1958.1,883.2z
		 M1964.3,755.6c1.6,1.8,0.6,6.2,0.6,8.9h-0.6C1962.4,762.3,1963.2,758.1,1964.3,755.6L1964.3,755.6z M1964.3,828v-1.7l1.7,0.6
		L1964.3,828z M1965.9,765.6c0.2-0.5,0.4-1.1,0.6-1.7c0.2,0.7,0.4,1.5,0.6,2.2h-0.6L1965.9,765.6z M1967,775.1v-2.8l1.1,1.7
		C1967.8,774.4,1967.4,774.7,1967,775.1L1967,775.1z M1969.8,825.8c-0.2-0.4-0.4-0.8-0.6-1.1h1.1
		C1970.2,825.1,1970,825.5,1969.8,825.8L1969.8,825.8z M1975.4,809.1c-0.2-0.4-0.4-0.7-0.6-1.1h1.1L1975.4,809.1z"/>
	<path class="st0" d="M1610.8,528.7v0.2c0.3,0.4,0.7,0.8,1,1.3C1611.3,528.8,1611.9,529.7,1610.8,528.7z"/>
	<path class="st0" d="M1615.8,534.8l1.1,1.1l0,0C1616.2,534.9,1616.9,535.6,1615.8,534.8z"/>
	<path class="st0" d="M1971.5,752.8c-0.2,0.4-0.4,0.7-0.6,1.1C1971.7,753,1971.8,754,1971.5,752.8z"/>
	<path class="st4" d="M1821.5,1075l-0.6,1.1h1.1L1821.5,1075z"/>
	<path class="st0" d="M1815.4,1077.8l-3.9,4.4h0.6l4.5-2.8C1815.8,1077.8,1816.5,1078.8,1815.4,1077.8z"/>
	<path class="st4" d="M1824.3,1077.8l1.7,0.6L1824.3,1077.8z"/>
	<path class="st0" d="M1838.8,1078.9l-0.6,0.6l1.1,1.1l0.6-1.7H1838.8z"/>
	<path class="st4" d="M1609.1,1080l1.1,0.6L1609.1,1080z"/>
	<path class="st4" d="M1795.9,1081.2l1.1,0.6L1795.9,1081.2z"/>
	<path class="st4" d="M1784.2,1086.2l1.1,0.6L1784.2,1086.2z"/>
	<path class="st0" d="M1598.5,1089.5v2.8h0.6l0.6-0.6C1598.9,1090.1,1600,1090.7,1598.5,1089.5z"/>
	<path class="st4" d="M1832.7,1091.2l0.6,1.1C1833,1091.8,1833.7,1091.9,1832.7,1091.2z"/>
</g>
<g id="Beta" class="st5">
	<polygon class="st6" points="2041.9,627.7 2042.3,1104.6 1839.2,1104.3 1838.9,627.4 	"/>
	<path class="st7" d="M1996.7,1065.2h-3.5c-1.3-2.3-2.9-4.5-4.7-6.5c-6.9-0.6-22.2-0.8-45.8-0.8c-17.1,0-29.2,0.3-36.3,0.8
		c-3.9,0.3-6.1,0.8-6.8,1.6c-1,1.1-1.6,4.9-1.9,11.4h-6.3l0.3-14.4l0.2-11c0-3.4-0.1-8.3-0.3-14.9c-0.2-6.3-0.3-10.9-0.3-13.7
		c0-11.1,1.8-19.1,5.5-23.9c3.7-4.8,8.7-7.2,15.2-7.3c6.2-0.2,12.2,2.4,16.2,7.1c4.2,4.7,7.2,11.4,9,20.1h0.6
		c0.9-8.9,2.2-15.1,4-18.8c1.9-3.7,4.8-6.7,8.4-8.7c4-2.3,8.4-3.4,13-3.3c6.1,0,12,1.9,16.9,5.4c5.3,3.6,9.5,8.6,12.2,14.4
		c2.8,6,4.3,14.4,4.3,25.3c0,2.2-0.1,5.4-0.2,9.7c-0.2,4-0.2,7.3-0.2,9.8C1996.2,1050.4,1996.4,1056.3,1996.7,1065.2z
		 M1934.7,1036.5v-3.9c0-8.5-1.5-14.4-4.6-17.8c-3.1-3.4-7.9-5.1-14.3-5.1c-5.7,0-9.9,1.4-12.6,4.2s-4,7.4-4,13.7
		c0,2.9,0.2,5.8,0.6,8.6c15.3,0.3,24.7,0.4,28.2,0.4L1934.7,1036.5z M1988.1,1036.2c0.7-2.7,1.1-5.4,1.1-8.2
		c0-7.1-2.1-12.5-6.2-16.3s-10.1-5.7-18-5.6c-5.1,0-9.4,0.9-12.6,2.6c-3.1,1.6-5.7,4.1-7.3,7.1c-1.6,3-2.4,7.3-2.4,12.9l0.1,7.6h2
		l19.4,0.1l19.7-0.2H1988.1z"/>
	<path class="st7" d="M1996.5,963.9h-4c-1.2-2.6-2.6-5-4.2-7.3c-7.8-1-24.2-1.4-49.3-1.4c-17.1,0-28.4,0.3-33.9,0.6
		c-3,0.2-4.8,0.7-5.6,1.5s-1.4,4.6-2,11.2h-6.3c0.4-11.8,0.6-21.1,0.6-28l-0.8-41.3c0-3.9,0.1-7.9,0.5-11.8l0.8-0.5
		c7.3,1.3,14.6,2.1,22,2.3v5.9c-7.3,0.3-11.2,0.6-11.7,0.9c-0.5,0.3-1,1.5-1.4,3.4c-0.9,4.2-1.3,10.5-1.3,19.1
		c0,4.2,0.2,9.1,0.6,14.7c15.5,0.6,27.8,0.9,36.9,1c0.3-5.4,0.5-10.4,0.5-15.1c0-7-0.2-11.1-0.7-12.5c-0.4-0.9-1.2-1.5-2.2-1.7
		c-0.9-0.3-4.1-0.6-9.5-1v-6.5c8.5,0.2,14,0.3,16.6,0.3l16.9-0.4v6.5c-6.6,0.4-10.4,0.8-11.4,1.4c-0.7,0.4-1.2,1.2-1.3,2
		c-0.5,2.5-0.8,8.1-0.8,16.9c0,2.8,0.2,6,0.6,9.7c2.7,0.1,5.4,0.1,8.1,0.1c14.3,0,25.2-0.3,32.9-0.8l0.2-14.9
		c0-7.8-0.4-15.5-1.4-23.2c-4.6-1.2-9.9-2.4-15.8-3.6v-6.2c8.5,1.1,17.1,1.8,25.7,2c0.4,4.6,0.6,8.9,0.6,13.1
		c0,2.8-0.1,8.2-0.2,16.3c-0.2,7.6-0.2,14.5-0.2,20.9C1995.9,945.8,1996.1,954.6,1996.5,963.9z"/>
	<path class="st7" d="M1996.3,849.6h-6.3c0-3-0.3-6-0.8-8.9c-0.1-1.1-0.5-2.2-1.3-3.1c-0.9-0.8-2-1.2-3.2-1.3
		c-2.1-0.3-10-0.6-23.7-0.8c-9.7-0.1-19.6-0.2-29.7-0.2c-19.9,0-30,0.1-30.3,0.3c-0.4,0.1-0.6,1.9-0.6,5.3c0,7,0.2,13,0.7,18
		c0.3,2.9,0.5,4.5,0.8,4.9s0.8,0.7,1.3,0.9c0.6,0.2,5,0.6,13.2,1.2v6.5c-9.6-0.1-17.8,0.2-24.8,0.8l-0.6-0.8c0.7-15.8,1-31.1,1-46
		s-0.5-31.5-1.3-49.9l1.2-0.8c6.9,0.9,14.9,1.6,24.2,2v6.2c-8.4,0.5-13,0.9-13.7,1.4c-0.7,0.6-1.1,1.5-1.1,2.4c-0.7,4-1,12-0.9,23.9
		c0,1,0.2,1.6,0.5,1.8c1.3,0.3,2.7,0.4,4,0.3l50.5,0.3c14.6,0,23.6-0.2,26.9-0.5s5.3-0.9,6-1.8c0.4-0.7,1-4.6,1.5-11.9h6.3
		c-0.3,7.4-0.5,15.2-0.5,23.5C1995.7,834,1996,842.8,1996.3,849.6z"/>
	<path class="st7" d="M1988.8,784.1c-0.3-4.7-0.7-7.6-1.4-8.7c-0.5-0.8-2.4-1.9-5.7-3.5c-6.5-3-15.6-6.9-27.1-11.6l-65.2-26.4v-11
		l80.5-34.1c10.2-4.4,15.7-7.2,16.7-8.2s1.6-4.2,2-9.5h6.8c-0.3,8.2-0.5,15.9-0.5,23.1c0,8.7,0.2,16.9,0.6,24.7h-6.8
		c-0.3-6-0.6-9.4-1-10.3c-0.4-0.9-1.3-1.5-2.2-1.4c-0.9,0-4.1,1.1-9.5,3.2l-12.5,5c-0.1,6.2-0.2,13.1-0.2,20.8
		c0,6.7,0.1,12.7,0.3,18.2l8.4,3.3c2.3,0.9,5.7,2,10.3,3.3c0.9,0.3,1.8,0.4,2.8,0.4c1,0.1,2-0.5,2.4-1.5c0.5-1,0.9-4.5,1.4-10.5h6.8
		c-0.3,4.9-0.5,11-0.5,18.3c0,6.9,0.2,12.5,0.6,16.6L1988.8,784.1z M1915.8,735l38.7,15.8c0.2-4.6,0.4-9.7,0.3-15.3
		c0-5.8-0.1-11.4-0.4-16.7L1915.8,735z"/>
</g>
</svg>
